<svg width="188" height="50" viewBox="0 0 188 50" fill="none" xmlns="http://www.w3.org/2000/svg">
<path d="M34.279 38.9359C33.8456 38.9359 33.4856 38.7859 33.199 38.4859C32.9123 38.1859 32.769 37.8359 32.769 37.4359V8.51587C32.769 8.11587 32.9123 7.76587 33.199 7.46587C33.4856 7.16587 33.8456 7.01587 34.279 7.01587C34.679 7.01587 35.029 7.16587 35.329 7.46587C35.629 7.76587 35.779 8.11587 35.779 8.51587V37.4359C35.779 37.8359 35.629 38.1859 35.329 38.4859C35.029 38.7859 34.679 38.9359 34.279 38.9359Z" fill="#2AA5E2"/>
<path d="M54.9188 38.3359C54.9188 38.3359 54.9055 38.3525 54.8788 38.3859C54.8455 38.3859 54.8288 38.3992 54.8288 38.4259H54.7888C54.7888 38.4259 54.7755 38.4392 54.7488 38.4659C54.7488 38.4992 54.7355 38.5159 54.7088 38.5159L54.6588 38.5559H54.6188C54.6188 38.5825 54.6055 38.5959 54.5788 38.5959H54.5288V38.6359H54.4888L54.4488 38.6859C54.3355 38.7392 54.2221 38.7659 54.1088 38.7659C54.0488 38.7992 53.9455 38.8159 53.7988 38.8159H53.7588H53.7188H53.6788H53.5888C53.5288 38.8159 53.4855 38.7992 53.4588 38.7659H53.3788C53.3188 38.7392 53.2821 38.7259 53.2688 38.7259C53.2555 38.7259 53.2188 38.7125 53.1588 38.6859C53.1321 38.6525 53.1055 38.6359 53.0788 38.6359C53.0455 38.6359 53.0155 38.6225 52.9888 38.5959L52.9488 38.5559C52.9488 38.5559 52.9321 38.5425 52.8988 38.5159H52.8588C52.8588 38.4825 52.8455 38.4659 52.8188 38.4659C52.8188 38.4659 52.8055 38.4525 52.7788 38.4259L52.7288 38.3859L52.6888 38.3359L52.6488 38.2959C52.6155 38.2692 52.5988 38.2425 52.5988 38.2159C52.5721 38.2159 52.5588 38.1992 52.5588 38.1659L52.5188 38.1259C52.4855 38.0992 52.4688 38.0559 52.4688 37.9959C52.4421 37.9692 52.4288 37.9492 52.4288 37.9359C52.4288 37.9159 52.4155 37.8925 52.3888 37.8659L42.7788 15.7259V37.3059C42.7788 37.7059 42.6355 38.0592 42.3488 38.3659C42.0621 38.6659 41.7055 38.8159 41.2788 38.8159C40.8788 38.8159 40.5255 38.6659 40.2188 38.3659C39.9188 38.0592 39.7688 37.7059 39.7688 37.3059V8.43586V8.34587V8.30586V8.26587V8.21586V8.17587V8.13586H39.8188V8.04586V8.00587V7.95586C39.8188 7.95586 39.8321 7.94253 39.8588 7.91586V7.83587C39.8855 7.83587 39.8988 7.8192 39.8988 7.78586C39.8988 7.7592 39.9055 7.74586 39.9188 7.74586C39.9388 7.74586 39.9488 7.73253 39.9488 7.70586V7.65586H39.9888V7.61586C39.9888 7.5892 40.0021 7.57586 40.0288 7.57586V7.53586C40.0288 7.53586 40.0421 7.5192 40.0688 7.48586L40.1188 7.44586C40.1188 7.4192 40.1321 7.40586 40.1588 7.40586C40.1588 7.37253 40.1655 7.35586 40.1788 7.35586C40.1921 7.35586 40.1988 7.34253 40.1988 7.31586C40.2321 7.31586 40.2488 7.30253 40.2488 7.27586H40.2888L40.3288 7.23586L40.3688 7.18586C40.4021 7.18586 40.4188 7.17253 40.4188 7.14586H40.4588L40.4988 7.10586H40.5488L40.5888 7.05586H40.6288C40.6888 7.00253 40.7455 6.97586 40.7988 6.97586C40.8588 6.97586 40.9188 6.96253 40.9788 6.93586H41.0188C41.0721 6.90253 41.1855 6.88586 41.3588 6.88586H41.4488H41.4888C41.5155 6.88586 41.5288 6.90253 41.5288 6.93586H41.5788H41.6188H41.6988C41.7321 6.96253 41.7621 6.97586 41.7888 6.97586C41.7888 6.97586 41.8021 6.9892 41.8288 7.01587H41.9188L41.9588 7.05586C41.9921 7.05586 42.0221 7.07253 42.0488 7.10586H42.0888C42.0888 7.13253 42.1021 7.14586 42.1288 7.14586L42.1788 7.18586H42.2188V7.23586H42.2588C42.2588 7.26253 42.2755 7.27586 42.3088 7.27586C42.3088 7.30253 42.3221 7.31586 42.3488 7.31586C42.3755 7.34253 42.3888 7.37253 42.3888 7.40586C42.4155 7.40586 42.4288 7.4192 42.4288 7.44586H42.4788V7.48586H42.5188V7.53586C42.5188 7.56253 42.5321 7.57586 42.5588 7.57586V7.61586C42.5588 7.61586 42.5755 7.6292 42.6088 7.65586C42.6088 7.6892 42.6155 7.70586 42.6288 7.70586C42.6421 7.70586 42.6488 7.7192 42.6488 7.74586C42.6488 7.74586 42.6621 7.77587 42.6888 7.83587L52.2988 30.0159V8.38586C52.2988 7.98586 52.4421 7.63587 52.7288 7.33587C53.0155 7.03587 53.3721 6.88586 53.7988 6.88586C54.2055 6.88586 54.5588 7.03587 54.8588 7.33587C55.1588 7.63587 55.3088 7.98586 55.3088 8.38586V37.2659V37.3959V37.4359V37.4859V37.5259V37.5659C55.3088 37.5659 55.2921 37.5792 55.2588 37.6059V37.6559V37.7359L55.2188 37.7859V37.8659C55.1921 37.8659 55.1788 37.8792 55.1788 37.9059V37.9559L55.1388 37.9959V38.0359C55.1055 38.0359 55.0888 38.0525 55.0888 38.0859V38.1259H55.0488V38.1659L55.0088 38.2159C55.0088 38.2425 54.9921 38.2559 54.9588 38.2559C54.9588 38.2825 54.9521 38.2959 54.9388 38.2959C54.9255 38.2959 54.9188 38.3092 54.9188 38.3359Z" fill="#2AA5E2"/>
<path d="M75.0326 36.4559C75.2326 36.8225 75.2692 37.1992 75.1426 37.5859C75.0159 37.9725 74.7659 38.2659 74.3926 38.4659C74.1926 38.5792 73.9626 38.6359 73.7026 38.6359C73.4159 38.6359 73.1526 38.5659 72.9126 38.4259C72.6659 38.2859 72.4726 38.0859 72.3326 37.8259L64.9926 23.2759L61.8226 28.4659V37.2659C61.8226 37.6925 61.6726 38.0492 61.3726 38.3359C61.0726 38.6225 60.7059 38.7659 60.2726 38.7659C59.8726 38.7659 59.5226 38.6225 59.2226 38.3359C58.9226 38.0492 58.7726 37.6925 58.7726 37.2659V28.0459V27.9959V8.47585C58.7726 8.04919 58.9226 7.68585 59.2226 7.38585C59.5226 7.08585 59.8726 6.93585 60.2726 6.93585C60.7059 6.93585 61.0726 7.08585 61.3726 7.38585C61.6726 7.68585 61.8226 8.04919 61.8226 8.47585V22.6759L71.0026 7.74585C71.2292 7.37252 71.5426 7.13585 71.9426 7.03585C72.3426 6.93585 72.7292 7.00252 73.1026 7.23585C73.4492 7.46252 73.6726 7.77585 73.7726 8.17585C73.8726 8.57585 73.8059 8.96252 73.5726 9.33585L66.8426 20.2759L75.0326 36.4559Z" fill="#2AA5E2"/>
<g clip-path="url(#clip0_302_46)">
<path d="M91.2592 41.0475H101.82L114.055 3H103.494L91.2592 41.0475Z" fill="#187FC4"/>
<path d="M101.795 41.0475H91.2344L79 3H89.561L101.795 41.0475Z" fill="url(#paint0_linear_302_46)"/>
</g>
<path d="M129.689 35.8959C130.115 35.8959 130.479 36.0459 130.779 36.3459C131.079 36.6459 131.229 37.0092 131.229 37.4359C131.229 37.8359 131.079 38.1859 130.779 38.4859C130.479 38.7859 130.115 38.9359 129.689 38.9359H118.319C117.892 38.9359 117.525 38.7859 117.219 38.4859C116.919 38.1859 116.769 37.8359 116.769 37.4359V8.51587C116.769 8.11587 116.919 7.76587 117.219 7.46587C117.525 7.16587 117.892 7.01587 118.319 7.01587H129.689C130.115 7.01587 130.479 7.16587 130.779 7.46587C131.079 7.76587 131.229 8.11587 131.229 8.51587C131.229 8.9492 131.079 9.31587 130.779 9.61587C130.479 9.91587 130.115 10.0659 129.689 10.0659H119.819V23.2359H127.239C127.672 23.2359 128.032 23.3859 128.319 23.6859C128.605 23.9859 128.749 24.3492 128.749 24.7759C128.749 25.1825 128.605 25.5359 128.319 25.8359C128.032 26.1359 127.672 26.2859 127.239 26.2859H119.819V35.8959H129.689Z" fill="#2AA5E2"/>
<path d="M145.243 25.4659L150.223 36.8359C150.39 37.2359 150.403 37.6292 150.263 38.0159C150.123 38.4025 149.85 38.6692 149.443 38.8159C149.33 38.8692 149.223 38.9025 149.123 38.9159C149.023 38.9292 148.93 38.9359 148.843 38.9359C148.53 38.9359 148.253 38.8659 148.013 38.7259C147.766 38.5859 147.573 38.3559 147.433 38.0359L142.283 26.2359H137.823V37.4359C137.823 37.8692 137.673 38.2292 137.373 38.5159C137.073 38.7959 136.706 38.9359 136.273 38.9359C135.873 38.9359 135.523 38.7959 135.223 38.5159C134.923 38.2292 134.773 37.8692 134.773 37.4359V8.56587C134.773 8.13254 134.923 7.76587 135.223 7.46587C135.523 7.16587 135.873 7.01587 136.273 7.01587H142.663C143.583 7.01587 144.463 7.29587 145.303 7.85587C146.15 8.4092 146.903 9.1892 147.563 10.1959C148.13 11.1092 148.573 12.1225 148.893 13.2359C149.206 14.3559 149.363 15.4859 149.363 16.6259C149.363 17.7992 149.206 18.9425 148.893 20.0559C148.573 21.1759 148.13 22.1925 147.563 23.1059C146.843 24.1925 146.07 24.9792 145.243 25.4659ZM137.823 10.0659V23.2359H142.663C143.036 23.2359 143.43 23.0792 143.843 22.7659C144.263 22.4525 144.643 22.0225 144.983 21.4759C145.416 20.8159 145.753 20.0659 145.993 19.2259C146.233 18.3792 146.353 17.5125 146.353 16.6259C146.353 15.7725 146.233 14.9225 145.993 14.0759C145.753 13.2292 145.416 12.4792 144.983 11.8259C144.643 11.2525 144.263 10.8159 143.843 10.5159C143.43 10.2159 143.036 10.0659 142.663 10.0659H137.823Z" fill="#2AA5E2"/>
<path d="M161.242 39.1159C159.236 39.1159 157.546 38.5425 156.172 37.3959C155.632 36.9359 155.096 36.2425 154.562 35.3159C154.036 34.3825 153.772 33.1159 153.772 31.5159C153.772 31.0892 153.922 30.7325 154.222 30.4459C154.522 30.1592 154.889 30.0159 155.322 30.0159C155.722 30.0159 156.062 30.1592 156.342 30.4459C156.629 30.7325 156.772 31.0892 156.772 31.5159C156.772 32.4625 156.909 33.2359 157.182 33.8359C157.456 34.4359 157.806 34.8992 158.232 35.2259C158.666 35.5592 159.146 35.7892 159.672 35.9159C160.199 36.0425 160.722 36.1059 161.242 36.1059C161.529 36.1059 161.936 36.0725 162.462 36.0059C162.989 35.9325 163.512 35.7392 164.032 35.4259C164.546 35.1059 164.996 34.6459 165.382 34.0459C165.769 33.4459 165.962 32.6025 165.962 31.5159C165.962 30.4559 165.812 29.5259 165.512 28.7259C165.212 27.9259 164.796 27.2125 164.262 26.5859C163.736 25.9525 163.129 25.3725 162.442 24.8459C161.756 24.3192 161.026 23.7825 160.252 23.2359C159.566 22.7492 158.872 22.2359 158.172 21.6959C157.472 21.1492 156.836 20.5459 156.262 19.8859C154.916 18.3125 154.229 16.4959 154.202 14.4359C154.202 14.3225 154.209 14.0959 154.222 13.7559C154.236 13.4092 154.286 13.0092 154.372 12.5559C154.632 11.0959 155.206 9.8792 156.092 8.90586C157.379 7.5592 159.109 6.88586 161.282 6.88586C163.482 6.88586 165.186 7.5592 166.392 8.90586C166.819 9.39253 167.162 9.9492 167.422 10.5759C167.676 11.2092 167.832 11.8959 167.892 12.6359C167.946 13.1492 167.966 13.5859 167.952 13.9459C167.939 14.3059 167.919 14.5125 167.892 14.5659C167.806 14.9392 167.706 15.2692 167.592 15.5559C167.446 15.7825 167.272 15.9825 167.072 16.1559C166.872 16.3292 166.572 16.3859 166.172 16.3259C165.772 16.2725 165.486 16.1225 165.312 15.8759C165.146 15.6359 165.032 15.3859 164.972 15.1259C164.886 14.8125 164.872 14.4825 164.932 14.1359C164.986 13.7359 164.986 13.3525 164.932 12.9859C164.872 12.6659 164.786 12.3125 164.672 11.9259C164.559 11.5392 164.372 11.1892 164.112 10.8759C163.539 10.1892 162.596 9.84587 161.282 9.84587C159.969 9.84587 158.982 10.2192 158.322 10.9659C158.009 11.2792 157.772 11.6359 157.612 12.0359C157.452 12.4359 157.346 12.7925 157.292 13.1059C157.206 13.5059 157.176 13.8925 157.202 14.2659V14.3959C157.202 15.1092 157.319 15.7525 157.552 16.3259C157.779 16.8992 158.099 17.4292 158.512 17.9159C158.926 18.4025 159.426 18.8825 160.012 19.3559C160.599 19.8225 161.266 20.3292 162.012 20.8759C162.839 21.4225 163.646 22.0025 164.432 22.6159C165.219 23.2292 165.956 23.9492 166.642 24.7759C168.189 26.6692 168.962 28.9159 168.962 31.5159C168.962 32.8359 168.739 33.9725 168.292 34.9259C167.852 35.8859 167.269 36.6725 166.542 37.2859C165.809 37.9059 164.979 38.3659 164.052 38.6659C163.119 38.9659 162.182 39.1159 161.242 39.1159Z" fill="#2AA5E2"/>
<path d="M185.689 35.8959C186.115 35.8959 186.479 36.0459 186.779 36.3459C187.079 36.6459 187.229 37.0092 187.229 37.4359C187.229 37.8359 187.079 38.1859 186.779 38.4859C186.479 38.7859 186.115 38.9359 185.689 38.9359H174.319C173.892 38.9359 173.525 38.7859 173.219 38.4859C172.919 38.1859 172.769 37.8359 172.769 37.4359V8.51587C172.769 8.11587 172.919 7.76587 173.219 7.46587C173.525 7.16587 173.892 7.01587 174.319 7.01587H185.689C186.115 7.01587 186.479 7.16587 186.779 7.46587C187.079 7.76587 187.229 8.11587 187.229 8.51587C187.229 8.9492 187.079 9.31587 186.779 9.61587C186.479 9.91587 186.115 10.0659 185.689 10.0659H175.819V23.2359H183.239C183.672 23.2359 184.032 23.3859 184.319 23.6859C184.605 23.9859 184.749 24.3492 184.749 24.7759C184.749 25.1825 184.605 25.5359 184.319 25.8359C184.032 26.1359 183.672 26.2859 183.239 26.2859H175.819V35.8959H185.689Z" fill="#2AA5E2"/>
<path d="M12.3563 38.0475H1.79535V0H12.3563V38.0475Z" fill="url(#paint1_linear_302_46)"/>
<path d="M12.2953 28.5L1.79532 38L15.7953 38L29.9527 38L29.9527 28.5L12.2953 28.5Z" fill="#187FC4"/>
<defs>
<linearGradient id="paint0_linear_302_46" x1="90.3915" y1="43.039" x2="90.3915" y2="-2.39295" gradientUnits="userSpaceOnUse">
<stop stop-color="#2AA5E2"/>
<stop offset="1" stop-color="#EFEFEF"/>
</linearGradient>
<linearGradient id="paint1_linear_302_46" x1="13.1868" y1="40.039" x2="13.1868" y2="-5.39295" gradientUnits="userSpaceOnUse">
<stop stop-color="#2AA5E2"/>
<stop offset="1" stop-color="#EFEFEF"/>
</linearGradient>
<clipPath id="clip0_302_46">
<rect width="35.0546" height="38.0475" fill="white" transform="translate(79 3)"/>
</clipPath>
</defs>
</svg>
